<svg width="16" height="16" viewBox="0 0 16 16" fill="none" xmlns="http://www.w3.org/2000/svg">
<path fill-rule="evenodd" clip-rule="evenodd" d="M10.6667 1.33334C11.0203 1.33334 11.3594 1.47382 11.6095 1.72387C11.8595 1.97392 12 2.31305 12 2.66668C12 3.0203 11.8595 3.35944 11.6095 3.60949C11.3594 3.85953 11.0203 4.00001 10.6667 4.00001C10.313 4.00001 9.97391 3.85953 9.72386 3.60949C9.47381 3.35944 9.33333 3.0203 9.33333 2.66668C9.33333 2.31305 9.47381 1.97392 9.72386 1.72387C9.97391 1.47382 10.313 1.33334 10.6667 1.33334ZM10.6667 6.66668C11.0203 6.66668 11.3594 6.80715 11.6095 7.0572C11.8595 7.30725 12 7.64639 12 8.00001C12 8.35363 11.8595 8.69277 11.6095 8.94282C11.3594 9.19287 11.0203 9.33334 10.6667 9.33334C10.313 9.33334 9.97391 9.19287 9.72386 8.94282C9.47381 8.69277 9.33333 8.35363 9.33333 8.00001C9.33333 7.64639 9.47381 7.30725 9.72386 7.0572C9.97391 6.80715 10.313 6.66668 10.6667 6.66668ZM5.33333 12C5.68696 12 6.02609 12.1405 6.27614 12.3905C6.52619 12.6406 6.66667 12.9797 6.66667 13.3333C6.66667 13.687 6.52619 14.0261 6.27614 14.2762C6.02609 14.5262 5.68696 14.6667 5.33333 14.6667C4.97971 14.6667 4.64057 14.5262 4.39052 14.2762C4.14048 14.0261 4 13.687 4 13.3333C4 12.9797 4.14048 12.6406 4.39052 12.3905C4.64057 12.1405 4.97971 12 5.33333 12ZM10.6667 12C11.0203 12 11.3594 12.1405 11.6095 12.3905C11.8595 12.6406 12 12.9797 12 13.3333C12 13.687 11.8595 14.0261 11.6095 14.2762C11.3594 14.5262 11.0203 14.6667 10.6667 14.6667C10.313 14.6667 9.97391 14.5262 9.72386 14.2762C9.47381 14.0261 9.33333 13.687 9.33333 13.3333C9.33333 12.9797 9.47381 12.6406 9.72386 12.3905C9.97391 12.1405 10.313 12 10.6667 12ZM5.33333 1.33334C5.68696 1.33334 6.02609 1.47382 6.27614 1.72387C6.52619 1.97392 6.66667 2.31305 6.66667 2.66668C6.66667 3.0203 6.52619 3.35944 6.27614 3.60949C6.02609 3.85953 5.68696 4.00001 5.33333 4.00001C4.97971 4.00001 4.64057 3.85953 4.39052 3.60949C4.14048 3.35944 4 3.0203 4 2.66668C4 2.31305 4.14048 1.97392 4.39052 1.72387C4.64057 1.47382 4.97971 1.33334 5.33333 1.33334ZM5.33333 6.66668C5.68696 6.66668 6.02609 6.80715 6.27614 7.0572C6.52619 7.30725 6.66667 7.64639 6.66667 8.00001C6.66667 8.35363 6.52619 8.69277 6.27614 8.94282C6.02609 9.19287 5.68696 9.33334 5.33333 9.33334C4.97971 9.33334 4.64057 9.19287 4.39052 8.94282C4.14048 8.69277 4 8.35363 4 8.00001C4 7.64639 4.14048 7.30725 4.39052 7.0572C4.64057 6.80715 4.97971 6.66668 5.33333 6.66668Z" fill="#64748B"/>
</svg>
